<mxfile host="app.diagrams.net">
  <diagram name="HoneyToken Architecture" id="uKGcKHs8MhnPnpLCdydw">
    <mxGraphModel dx="1238" dy="688" grid="1" gridSize="10" guides="1" tooltips="1" connect="1">
      <root>
        <mxCell id="0" />
        <mxCell id="1" parent="0" />
        <mxCell id="2" value="GitHub Gist (Leaked Token)" style="rounded=1;fillColor=#f8cecc;strokeColor=#b85450;" vertex="1" parent="1">
          <mxGeometry x="80" y="60" width="200" height="60" as="geometry" />
        </mxCell>
        <mxCell id="3" value="AWS STS Call (Attacker)" style="rounded=1;fillColor=#dae8fc;strokeColor=#6c8ebf;" vertex="1" parent="1">
          <mxGeometry x="80" y="160" width="200" height="60" as="geometry" />
        </mxCell>
        <mxCell id="4" value="CloudTrail Logs" style="rounded=1;fillColor=#e1d5e7;strokeColor=#9673a6;" vertex="1" parent="1">
          <mxGeometry x="80" y="260" width="200" height="60" as="geometry" />
        </mxCell>
        <mxCell id="5" value="EventBridge Rule (STS Detect)" style="rounded=1;fillColor=#fff2cc;strokeColor=#d6b656;" vertex="1" parent="1">
          <mxGeometry x="80" y="360" width="200" height="60" as="geometry" />
        </mxCell>
        <mxCell id="6" value="Lambda: Slack + MongoDB Atlas" style="rounded=1;fillColor=#d5e8d4;strokeColor=#82b366;" vertex="1" parent="1">
          <mxGeometry x="80" y="460" width="200" height="60" as="geometry" />
        </mxCell>
        <mxCell id="7" style="endArrow=block;strokeColor=#000000;" edge="1" source="2" target="3" parent="1">
          <mxGeometry relative="1" as="geometry" />
        </mxCell>
        <mxCell id="8" style="endArrow=block;strokeColor=#000000;" edge="1" source="3" target="4" parent="1">
          <mxGeometry relative="1" as="geometry" />
        </mxCell>
        <mxCell id="9" style="endArrow=block;strokeColor=#000000;" edge="1" source="4" target="5" parent="1">
          <mxGeometry relative="1" as="geometry" />
        </mxCell>
        <mxCell id="10" style="endArrow=block;strokeColor=#000000;" edge="1" source="5" target="6" parent="1">
          <mxGeometry relative="1" as="geometry" />
        </mxCell>
      </root>
    </mxGraphModel>
  </diagram>
</mxfile>
